# xmcd
# 
# Track frame offsets:
#     150
#     17046
#     28168
#     46136
#     60771
#     75097
#     93437
#     109969
#     124292
#     135973
#     148357
#     158146
#     176096
#     192348
#     207510
#     222637
#     241203
#     254861
#     268301
#     282292
# 
# Disc length: 3966
# 
# Revision: 3
# Processed by: cddbd v1.5.2PL0 Copyright (c) Steve Scherf et al.
# Submitted via: fre:ac v1.0.17
# 
DISCID=2f0f7c14
DTITLE=Master Tone - The First Noel
DYEAR=1996
DGENRE=Christmas
TTITLE0=Silent Night
TTITLE1=On Christmas Night All Christians Sing
TTITLE2=Jingle Bells
TTITLE3=Homecoming Journey
TTITLE4=Pat - a - Pan
TTITLE5=In the Bleak Midwinter
TTITLE6=Lo, How a Rose E'er Blooming
TTITLE7=Hallelujah
TTITLE8=Sing we now of Christmas
TTITLE9=Children, Go Where I Send Thee
TTITLE10=How Great our Joy
TTITLE11=The Bells Never Had a Sweeter Sound
TTITLE12=Joy (Sing a Song)
TTITLE13=Bring a Torch, Jeanette Isabella
TTITLE14=Simple Gifts
TTITLE15=The First Noel
TTITLE16=Tomorrow Comes Santa Claus
TTITLE17=I Heard the Bells on Christmas Day
TTITLE18=O Come O Come Emmanuel
TTITLE19=What Child is This
EXTD=
EXTT0=
EXTT1=
EXTT2=
EXTT3=
EXTT4=
EXTT5=
EXTT6=
EXTT7=
EXTT8=
EXTT9=
EXTT10=
EXTT11=
EXTT12=
EXTT13=
EXTT14=
EXTT15=
EXTT16=
EXTT17=
EXTT18=
EXTT19=
PLAYORDER=
